<?xml version="1.0" encoding="utf-8"?>
<!-- Generator: Adobe Illustrator 18.0.0, SVG Export Plug-In . SVG Version: 6.00 Build 0)  -->
<!DOCTYPE svg PUBLIC "-//W3C//DTD SVG 1.1//EN" "http://www.w3.org/Graphics/SVG/1.1/DTD/svg11.dtd">
<svg version="1.1" id="圖層_1" xmlns="http://www.w3.org/2000/svg" xmlns:xlink="http://www.w3.org/1999/xlink" x="0px" y="0px"
	 viewBox="0 0 186.2 64" enable-background="new 0 0 186.2 64" xml:space="preserve">
<g id="圖層_8">
	<g>
		<g>
			<path fill="#FFFFFF" d="M34.5,0c2.3,0.3,4.6,0.5,6.7,1.3c11.2,3.7,18.3,11,21.7,22.3c0.2,0.9,0.2,1-0.8,1c-1.1,0-2.3,0-3.4,0
				c-0.7,0-1-0.2-1.2-0.9c-2.9-8.5-8.7-14.5-17.3-17.3C24.6,1.2,8,11.3,5.4,27.6c-2.3,14.6,7.4,28.1,21.9,30.9
				c13.1,2.4,26.2-5.4,30.3-18.1c0.2-0.8,0.7-1.1,1.4-1c1.1,0.1,2.1,0,3.1,0c0.9,0,1,0.1,0.8,1c-1.3,4.6-3.5,8.9-6.6,12.5
				c-5.4,6.2-12.2,10-20.5,10.9c-9.1,1.1-17.3-1.3-24.4-7.2c-6.3-5.2-10-11.9-11.2-19.9c-0.1-1-0.2-2.1-0.3-3c0-1.1,0-2.1,0-3.1
				c0.1-1.2,0.2-2.5,0.4-3.6C3,13.6,10.7,5.1,23.5,1.1c2-0.7,4-0.9,6.1-1.1C31.2,0,32.9,0,34.5,0z"/>
			<path fill="#FFFFFF" d="M61.1,38c-0.2-0.1-0.4-0.2-0.5-0.3c-2.6-1.7-5.2-3.6-7.8-5.3c-0.5-0.3-0.5-0.5,0-1
				c2.6-1.7,5.2-3.6,7.8-5.3c0.4-0.3,0.8-0.3,1.2,0c2.3,1.7,4.6,3.6,7.1,5.3c0.4,0.3,0.5,0.5,0.1,1c-2.4,1.7-4.8,3.6-7.1,5.4
				C61.4,37.9,61.3,37.9,61.1,38z M60.6,31.9c0-1.3,0-2.6,0-3.9c0-0.4-0.1-0.7-0.5-0.3c-1.8,1.3-3.7,2.6-5.4,4
				c-0.4,0.3-0.3,0.5,0,0.8c1.8,1.2,3.6,2.4,5.4,3.6c0.5,0.3,0.5,0.1,0.5-0.3C60.6,34.3,60.6,33.2,60.6,31.9z"/>
			<path fill="#FFFFFF" d="M47.5,20.4c0,2.3-1.8,4.2-4.2,4.1c-2.3,0-4.1-1.8-4.1-4.2s1.8-4.2,4.1-4.2C45.7,16.1,47.5,18.1,47.5,20.4
				z"/>
		</g>
	</g>
	<g>
		<path fill="#FFFFFF" d="M87.3,25.6v2.6c-1-0.8-2.1-1.2-3.1-1.2c-1.3,0-2.4,0.4-3.4,1.3c-1.1,1-1.6,2.3-1.6,3.8
			c0,1.5,0.5,2.7,1.6,3.5c1.2,1,2.3,1.4,3.4,1.4c0.5,0,1.1-0.1,1.6-0.3c0.5-0.2,1-0.5,1.5-0.9v2.7c-1.1,0.5-2.1,0.8-3.3,0.8
			c-1.7,0-3.4-0.7-4.9-2.1c-0.8-0.7-1.3-1.5-1.6-2.4C77.1,33.9,77,33,77,31.9c0-1.2,0.2-2.3,0.8-3.3c0.4-1,1.2-1.8,2.1-2.5
			c1.4-1,2.8-1.5,4.2-1.5C85,24.6,86.1,24.9,87.3,25.6z"/>
		<path fill="#FFFFFF" d="M103.3,30.8l3.5,8.2h-2.9l-1.5-3.3c-0.7,1.1-1.5,1.8-2.6,2.5s-2.3,1-3.6,1c-2.1,0-3.8-0.8-5.2-2.1
			c-1.4-1.4-2.1-3.1-2.1-5.2c0-2,0.8-3.7,2.1-5.1c1.4-1.4,3.1-2.1,5.2-2.1c1.8,0,3.4,0.5,4.6,1.7C102.2,27.5,103.1,29,103.3,30.8z
			 M96.3,27c-1.4,0-2.5,0.4-3.5,1.4c-1,1-1.5,2.1-1.5,3.5c0,1.4,0.4,2.6,1.4,3.6c1,1,2.1,1.4,3.6,1.4s2.6-0.5,3.5-1.5
			c1-1,1.4-2.1,1.4-3.6c0-1.3-0.4-2.5-1.4-3.4C98.7,27.4,97.6,27,96.3,27z"/>
		<path fill="#FFFFFF" d="M113.4,24.5c0.9,0,1.7,0.2,2.5,0.5c0.8,0.4,1.4,0.9,2,1.5c1.2-1.4,2.7-2.1,4.6-2.1c1.5,0,2.8,0.5,3.9,1.5
			c1.1,1.1,1.6,2.3,1.6,3.8v9.3h-2.3v-8.2c0-1-0.3-2-1-2.7c-0.7-0.8-1.4-1.1-2.4-1.1s-1.8,0.4-2.5,1.2c-0.7,0.8-1,1.6-1,2.6v8.2
			h-2.3v-8.4c0-1-0.3-2-1-2.7c-0.7-0.8-1.4-1.1-2.4-1.1s-1.8,0.3-2.6,1s-1.1,1.5-1.1,2.5V39h-2.3v-9.5c0-1.5,0.5-2.7,1.7-3.7
			C110.4,24.9,111.9,24.5,113.4,24.5z"/>
		<path fill="#FFFFFF" d="M131.2,47.8V32c0-2.3,0.8-4.1,2.1-5.5c1.4-1.3,3.1-1.8,5.2-1.8c2,0,3.7,0.8,5.1,2.1
			c1.4,1.4,2.1,3.1,2.1,5.2c0,2-0.7,3.7-2.1,5.1c-1.4,1.4-3.1,2.1-5.1,2.1c-1.3,0-2.4-0.2-3.3-0.5c-0.3-0.1-0.7-0.3-1-0.5
			c-0.2-0.1-0.3,0-0.4,0.2c-0.1,0.2-0.1,0.5-0.1,0.9c0,0.1,0,0.2,0,0.3c0,0,0,0,0,0.1V48h-2.6V47.8L131.2,47.8z M138.6,27
			c-1.3,0-2.5,0.4-3.5,1.4c-1,1-1.5,2.1-1.5,3.5c0,1.4,0.4,2.5,1.4,3.5c1,1,2.1,1.5,3.5,1.5s2.5-0.5,3.5-1.5c1-1,1.4-2.1,1.4-3.6
			c0-1.3-0.4-2.5-1.4-3.5C141.2,27.4,140,27,138.6,27z"/>
		<path fill="#FFFFFF" d="M161.7,30.8l3.5,8.2l-2.9-0.1l-1.5-3.3c-0.7,1.1-1.5,1.8-2.6,2.5c-1.1,0.7-2.3,1-3.6,1
			c-2.1,0-3.8-0.8-5.2-2.1c-1.4-1.4-2.1-3.1-2.1-5.2c0-2,0.8-3.7,2.1-5.1c1.4-1.4,3.1-2.1,5.2-2.1c1.8,0,3.4,0.5,4.6,1.7
			C160.6,27.5,161.3,29,161.7,30.8z M154.6,27c-1.4,0-2.5,0.4-3.5,1.4c-1,1-1.5,2.1-1.5,3.5c0,1.4,0.4,2.6,1.4,3.6
			c1,1,2.1,1.4,3.6,1.4c1.4,0,2.6-0.5,3.5-1.5c1-1,1.4-2.1,1.4-3.6c0-1.3-0.4-2.5-1.4-3.4C157.1,27.4,155.9,27,154.6,27z"/>
		<path fill="#FFFFFF" d="M171.6,27.5c-0.2-0.4-0.5-0.7-0.9-1c-0.3-0.2-0.8-0.3-1.1-0.3c-0.4,0.1-0.9,0.3-1.1,0.7
			c-0.2,0.4-0.3,0.9-0.3,1.3c0,0.7,1.1,1.4,3.4,2.1c2.1,0.8,3.4,2.1,3.4,4c0,1.4-0.4,2.5-1.4,3.4c-1,0.9-2.1,1.3-3.5,1.3
			c-1.5,0-2.7-0.5-3.7-1.5c-1-1-1.5-2.3-1.5-3.9l2.5,0.9c-0.1,0.9,0.1,1.5,0.7,1.8c0.5,0.4,1.2,0.5,2,0.5c0.8,0,1.4-0.2,2-0.7
			c0.5-0.4,0.9-1.1,0.9-1.8c0-0.9-1.2-1.6-3.5-2.4c-2.3-0.8-3.5-2-3.5-3.5c0-1.1,0.4-2.1,1.2-2.8c0.8-0.8,1.7-1.2,2.9-1.2
			c1.1,0,2,0.3,2.7,1c0.8,0.7,1.2,1.5,1.3,2.5L171.6,27.5z"/>
		<path fill="#FFFFFF" d="M182.8,27.5c-0.2-0.4-0.5-0.7-0.9-1c-0.3-0.2-0.8-0.3-1.1-0.3c-0.4,0.1-0.9,0.3-1.1,0.7
			c-0.2,0.4-0.3,0.9-0.3,1.3c0,0.7,1.1,1.4,3.4,2.1c2.1,0.8,3.4,2.1,3.4,4c0,1.4-0.4,2.5-1.4,3.4c-1,0.9-2.1,1.3-3.5,1.3
			c-1.5,0-2.7-0.5-3.7-1.5c-1-1-1.5-2.3-1.5-3.9l2.5,0.9c-0.1,0.9,0.1,1.5,0.7,1.8c0.5,0.4,1.2,0.5,2,0.5c0.8,0,1.4-0.2,2-0.7
			s0.9-1.1,0.9-1.8c0-0.9-1.2-1.6-3.5-2.4c-2.3-0.8-3.5-2-3.5-3.5c0-1.1,0.4-2.1,1.2-2.8c0.8-0.8,1.7-1.2,2.9-1.2c1.1,0,2,0.3,2.7,1
			c0.8,0.7,1.2,1.5,1.3,2.5L182.8,27.5z"/>
	</g>
</g>
</svg>
